# xmcd CD database file generated by OrangeCD 6.3
#
# Track frame offsets:
#	150
#	13872
#	25715
#	42257
#	55367
#	69812
#	86662
#	103462
#	115747
#	136492
#	152612
#	166272
#	179890
#	198015
#	209765
#
# Disc length: 3083 seconds
#
# Revision: 0
# Processed by: cddbd v1.5.2PL0 Copyright (c) Steve Scherf et al.
# Submitted via: OrangeCD 6.3
#
DISCID=d20c090f
DTITLE=Various Artist - The Magnificent Seven Wanted Dead Or Alive
DYEAR=1999
DGENRE=
TTITLE0=The Dean Brothers - Slow Down
TTITLE1=Lonestar Country - Love Me Love Me
TTITLE2=Raddings and Moore - Just You Wait And See
TTITLE3=Dallas Wayne - Hank
TTITLE4=Paul J. Daron - Buzz, Buzz
TTITLE5=Clarke Steelman - Ain't Got You
TTITLE6=Glen Mitchell - A Million Reasons
TTITLE7=Dallas Wayne - Doctor
TTITLE8=Raddings and Moore - Storyline
TTITLE9=Lonestar Country - It's Now Or Never
TTITLE10=Paul J. Daron - Itchy Feet
TTITLE11=Clarke Steelman - A Matter Of Time
TTITLE12=Dallas Wayne - She Lit The Torch
TTITLE13=The Dean Brother - If The Jukebox Took Teardrops
TTITLE14=Glen Mitchell - Little Miss Hollywood
EXTD=
EXTT0=
EXTT1=
EXTT2=
EXTT3=
EXTT4=
EXTT5=
EXTT6=
EXTT7=
EXTT8=
EXTT9=
EXTT10=
EXTT11=
EXTT12=
EXTT13=
EXTT14=
PLAYORDER=
